<?xml version="1.0" encoding="UTF-8" standalone="no" ?>
<!DOCTYPE svg PUBLIC "-//W3C//DTD SVG 1.1//EN" "http://www.w3.org/Graphics/SVG/1.1/DTD/svg11.dtd">
<svg xmlns="http://www.w3.org/2000/svg" xmlns:xlink="http://www.w3.org/1999/xlink" version="1.1" width="1080" height="1080" viewBox="0 0 1080 1080" xml:space="preserve">
<desc>Created with Fabric.js 4.2.0</desc>
<defs>
</defs>
<g transform="matrix(1 0 0 1 540 540)" id="b3909a45-805c-4b8f-be91-27e9184ab19a"  >
<rect style="stroke: none; stroke-width: 1; stroke-dasharray: none; stroke-linecap: butt; stroke-dashoffset: 0; stroke-linejoin: miter; stroke-miterlimit: 4; fill: rgb(255,255,255); fill-rule: nonzero; opacity: 1;" vector-effect="non-scaling-stroke"  x="-540" y="-540" rx="0" ry="0" width="1080" height="1080" />
</g>
<g transform="matrix(1 0 0 1 540 540)" id="ad7f9e01-c0cb-4be8-9d91-538d22ea0c16"  >
</g>
<g transform="matrix(0.98 0 0 0.98 540 540)" id="4e70025f-3651-4aa6-863b-5a56e308738f"  >
<path style="stroke: rgb(0,0,0); stroke-width: 0; stroke-dasharray: none; stroke-linecap: butt; stroke-dashoffset: 0; stroke-linejoin: miter; stroke-miterlimit: 4; fill: rgb(0,0,0); fill-rule: nonzero; opacity: 1;" vector-effect="non-scaling-stroke"  transform=" translate(-222, -61)" d="M 76.1 0.8 L 64 0.8 C 62.3 0.8 60.9 2.2 60.9 4 L 60.9 42.5 L 60.9 42.7 C 54.9 38 48.2 36 39.4 36 C 29.599999999999998 36 20.799999999999997 39.5 14 46 C 6 53.6 1.4 64.3 1.4 75.6 C 1.4 87.8 6.300000000000001 98.89999999999999 15.3 106.8 C 21.8 112.6 30.200000000000003 115.7 39.5 115.7 C 47.6 115.7 54.7 113.4 61 108.60000000000001 L 61 108.60000000000001 L 61 110.60000000000001 C 61 112.4 62.4 113.80000000000001 64.1 113.80000000000001 L 76.19999999999999 113.80000000000001 C 77.89999999999999 113.80000000000001 79.29999999999998 112.4 79.29999999999998 110.60000000000001 L 79.29999999999998 4 C 79.2 2.3 77.8 0.8 76.1 0.8 z M 41.4 96.7 C 29.299999999999997 96.7 20.599999999999998 87.9 20.599999999999998 75.80000000000001 C 20.599999999999998 64.20000000000002 29.599999999999998 54.80000000000001 40.599999999999994 54.80000000000001 C 51.8 54.80000000000001 60.199999999999996 64.00000000000001 60.199999999999996 76.10000000000001 C 60.2 87.7 52 96.7 41.4 96.7 z M 163.1 66.8 L 134.2 66.8 L 134.2 4 C 134.2 2.2 132.79999999999998 0.7999999999999998 131.1 0.7999999999999998 L 119 0.7999999999999998 C 117.3 0.7999999999999998 115.9 2.1999999999999997 115.9 4 L 115.9 82.4 C 115.9 84.2 117.30000000000001 85.60000000000001 119 85.60000000000001 L 163.1 85.60000000000001 C 164.79999999999998 85.60000000000001 166.2 84.10000000000001 166.2 82.4 L 166.2 70 C 166.2 68.2 164.8 66.8 163.1 66.8 z M 163.1 95 L 106.69999999999999 95 L 106.69999999999999 4 C 106.69999999999999 2.2 105.29999999999998 0.7999999999999998 103.6 0.7999999999999998 L 91.5 0.7999999999999998 C 89.8 0.7999999999999998 88.4 2.1999999999999997 88.4 4 L 88.4 110.6 C 88.4 112.39999999999999 89.80000000000001 113.8 91.5 113.89999999999999 L 163.1 113.89999999999999 C 164.79999999999998 113.8 166.2 112.3 166.2 110.49999999999999 L 166.2 98.2 C 166.2 96.5 164.8 95 163.1 95 z M 321.9 77.2 C 321.4 76.8 320.79999999999995 76.5 320.09999999999997 76.2 C 319.4 75.9 318.7 75.7 317.9 75.5 C 316.59999999999997 75.2 315.5 74.9 314.7 74.5 C 313.9 74.1 313.5 73.6 313.5 72.9 C 313.5 72.10000000000001 313.8 71.60000000000001 314.4 71.2 C 315 70.9 315.79999999999995 70.7 316.9 70.7 C 317.9 70.7 318.79999999999995 70.9 319.5 71.2 C 320.2 71.5 320.9 71.9 321.4 72.4 L 323.09999999999997 70.10000000000001 C 322.29999999999995 69.4 321.49999999999994 68.9 320.4 68.50000000000001 C 319.4 68.10000000000001 318.2 67.90000000000002 316.79999999999995 67.90000000000002 C 315.99999999999994 67.90000000000002 315.19999999999993 68.00000000000001 314.4 68.20000000000002 C 313.59999999999997 68.40000000000002 312.9 68.70000000000002 312.29999999999995 69.20000000000002 C 311.69999999999993 69.70000000000002 311.19999999999993 70.20000000000002 310.79999999999995 70.80000000000001 C 310.4 71.4 310.19999999999993 72.10000000000001 310.19999999999993 73.00000000000001 C 310.19999999999993 73.80000000000001 310.3999999999999 74.50000000000001 310.69999999999993 75.10000000000001 C 310.99999999999994 75.7 311.3999999999999 76.2 311.8999999999999 76.60000000000001 C 312.3999999999999 77.00000000000001 312.99999999999994 77.30000000000001 313.5999999999999 77.60000000000001 C 314.19999999999993 77.80000000000001 314.8999999999999 78.00000000000001 315.4999999999999 78.2 C 316.39999999999986 78.4 317.1999999999999 78.60000000000001 317.7999999999999 78.8 C 318.3999999999999 79 318.8999999999999 79.2 319.2999999999999 79.39999999999999 C 319.6999999999999 79.6 319.8999999999999 79.89999999999999 320.0999999999999 80.1 C 320.2999999999999 80.39999999999999 320.2999999999999 80.69999999999999 320.2999999999999 81.1 C 320.2999999999999 81.89999999999999 319.8999999999999 82.39999999999999 319.1999999999999 82.8 C 318.4999999999999 83.2 317.59999999999985 83.3 316.4999999999999 83.3 C 315.39999999999986 83.3 314.39999999999986 83.1 313.5999999999999 82.7 C 312.7999999999999 82.3 312.0999999999999 81.8 311.4999999999999 81.2 L 309.4999999999999 83.4 C 311.0999999999999 85.10000000000001 313.39999999999986 86 316.4999999999999 86 C 317.39999999999986 86 318.2999999999999 85.9 319.0999999999999 85.7 C 319.8999999999999 85.5 320.69999999999993 85.10000000000001 321.2999999999999 84.7 C 321.8999999999999 84.3 322.3999999999999 83.7 322.7999999999999 83.10000000000001 C 323.1999999999999 82.50000000000001 323.3999999999999 81.7 323.3999999999999 80.80000000000001 C 323.3999999999999 80.00000000000001 323.2999999999999 79.30000000000001 322.99999999999994 78.70000000000002 C 322.9 78.1 322.5 77.6 321.9 77.2 z M 340.7 70.6 C 339.9 69.8 339 69.1 337.9 68.6 C 336.79999999999995 68.1 335.7 67.89999999999999 334.4 67.89999999999999 C 333.09999999999997 67.89999999999999 331.9 68.1 330.9 68.6 C 329.79999999999995 69.1 328.9 69.69999999999999 328.09999999999997 70.6 C 327.29999999999995 71.39999999999999 326.7 72.39999999999999 326.29999999999995 73.5 C 325.9 74.6 325.59999999999997 75.8 325.59999999999997 77 C 325.59999999999997 78.2 325.79999999999995 79.4 326.29999999999995 80.5 C 326.69999999999993 81.6 327.29999999999995 82.5 328.09999999999997 83.4 C 328.9 84.2 329.79999999999995 84.9 330.9 85.4 C 332 85.9 333.09999999999997 86.10000000000001 334.4 86.10000000000001 C 335.7 86.10000000000001 336.79999999999995 85.9 337.9 85.4 C 339 84.9 339.9 84.30000000000001 340.7 83.4 C 341.5 82.60000000000001 342.09999999999997 81.60000000000001 342.5 80.5 C 342.9 79.4 343.2 78.2 343.2 77 C 343.2 75.8 343 74.6 342.5 73.5 C 342.1 72.4 341.5 71.4 340.7 70.6 z M 339.6 79.3 C 339.40000000000003 80 339 80.7 338.5 81.3 C 338 81.89999999999999 337.4 82.3 336.8 82.7 C 336.1 83.10000000000001 335.3 83.2 334.5 83.2 C 333.6 83.2 332.9 83 332.2 82.7 C 331.5 82.3 330.9 81.9 330.5 81.3 C 330 80.7 329.6 80.1 329.4 79.3 C 329.2 78.6 329 77.8 329 77 C 329 76.2 329.1 75.5 329.4 74.7 C 329.59999999999997 74 330 73.3 330.5 72.7 C 331 72.10000000000001 331.6 71.7 332.2 71.3 C 332.9 70.89999999999999 333.7 70.8 334.5 70.8 C 335.4 70.8 336.1 71 336.8 71.3 C 337.5 71.7 338.1 72.1 338.5 72.7 C 339 73.3 339.4 74 339.6 74.7 C 339.8 75.4 340 76.2 340 77 C 339.9 77.8 339.8 78.5 339.6 79.3 z M 345.9 85.5 L 349.09999999999997 85.5 L 349.09999999999997 61.1 L 345.9 61.1 L 345.9 85.5 z M 367.5 68.5 L 364.3 68.5 L 364.3 76.4 C 364.3 77.2 364.2 78 364.1 78.80000000000001 C 363.90000000000003 79.60000000000001 363.70000000000005 80.30000000000001 363.3 80.9 C 362.90000000000003 81.5 362.40000000000003 82 361.8 82.4 C 361.2 82.80000000000001 360.40000000000003 83 359.5 83 C 358.3 83 357.4 82.6 356.7 81.9 C 356.09999999999997 81.2 355.7 80 355.7 78.4 L 355.7 68.4 L 352.5 68.4 L 352.5 78.60000000000001 C 352.5 80.80000000000001 353 82.60000000000001 354 83.9 C 355 85.2 356.6 85.80000000000001 358.8 85.80000000000001 C 359.6 85.80000000000001 360.2 85.70000000000002 360.8 85.50000000000001 C 361.40000000000003 85.30000000000001 361.90000000000003 85.10000000000001 362.40000000000003 84.80000000000001 C 362.90000000000003 84.50000000000001 363.20000000000005 84.20000000000002 363.50000000000006 83.9 C 363.80000000000007 83.60000000000001 364.1000000000001 83.2 364.30000000000007 82.9 L 364.4000000000001 85.4 L 367.5000000000001 85.4 C 367.5000000000001 84.80000000000001 367.5000000000001 84.2 367.5000000000001 83.7 L 367.5000000000001 68.5 z M 380.1 82.9 C 379.70000000000005 83.10000000000001 379.20000000000005 83.2 378.6 83.2 C 377.8 83.2 377.3 82.9 376.8 82.4 C 376.40000000000003 81.9 376.2 80.9 376.2 79.60000000000001 L 376.2 71.2 L 381 71.2 L 381 68.5 L 376.2 68.5 L 376.2 62.9 L 373 62.9 L 373 68.5 L 370 68.5 L 370 71.2 L 373 71.2 L 373 79.9 C 373 82 373.4 83.5 374.2 84.5 C 375 85.5 376.3 86 378.09999999999997 86 C 379.09999999999997 86 379.99999999999994 85.8 380.7 85.5 C 381.4 85.2 382.09999999999997 84.7 382.8 84 L 381.3 82 C 380.9 82.4 380.5 82.7 380.1 82.9 z M 384.8 65.4 L 388.40000000000003 65.4 L 388.40000000000003 61.7 L 384.8 61.7 L 384.8 65.4 z M 385 85.5 L 388.2 85.5 L 388.2 68.5 L 385 68.5 L 385 85.5 z M 406.1 70.6 C 405.3 69.8 404.40000000000003 69.1 403.3 68.6 C 402.2 68.1 401.1 67.89999999999999 399.8 67.89999999999999 C 398.5 67.89999999999999 397.3 68.1 396.3 68.6 C 395.2 69.1 394.3 69.69999999999999 393.5 70.6 C 392.7 71.39999999999999 392.1 72.39999999999999 391.7 73.5 C 391.3 74.6 391 75.8 391 77 C 391 78.2 391.2 79.4 391.7 80.5 C 392.09999999999997 81.6 392.7 82.5 393.5 83.4 C 394.3 84.2 395.2 84.9 396.3 85.4 C 397.40000000000003 85.9 398.5 86.10000000000001 399.8 86.10000000000001 C 401.1 86.10000000000001 402.2 85.9 403.3 85.4 C 404.40000000000003 84.9 405.3 84.30000000000001 406.1 83.4 C 406.90000000000003 82.60000000000001 407.5 81.60000000000001 407.90000000000003 80.5 C 408.3 79.4 408.6 78.2 408.6 77 C 408.6 75.8 408.40000000000003 74.6 407.90000000000003 73.5 C 407.5 72.4 406.9 71.4 406.1 70.6 z M 405 79.3 C 404.8 80 404.4 80.7 403.9 81.3 C 403.4 81.89999999999999 402.79999999999995 82.3 402.2 82.7 C 401.6 83.10000000000001 400.7 83.2 399.9 83.2 C 399.09999999999997 83.2 398.29999999999995 83 397.59999999999997 82.7 C 396.9 82.3 396.29999999999995 81.9 395.9 81.3 C 395.4 80.7 395 80.1 394.79999999999995 79.3 C 394.59999999999997 78.6 394.4 77.8 394.4 77 C 394.4 76.2 394.5 75.5 394.79999999999995 74.7 C 394.99999999999994 74 395.4 73.3 395.9 72.7 C 396.4 72.10000000000001 397 71.7 397.59999999999997 71.3 C 398.29999999999995 70.89999999999999 399.09999999999997 70.8 399.9 70.8 C 400.79999999999995 70.8 401.5 71 402.2 71.3 C 402.9 71.7 403.5 72.1 403.9 72.7 C 404.4 73.3 404.79999999999995 74 405 74.7 C 405.2 75.4 405.4 76.2 405.4 77 C 405.4 77.8 405.3 78.5 405 79.3 z M 419.9 68.1 C 419.09999999999997 68.1 418.5 68.19999999999999 417.9 68.39999999999999 C 417.29999999999995 68.6 416.79999999999995 68.8 416.29999999999995 69.1 C 415.79999999999995 69.39999999999999 415.49999999999994 69.69999999999999 415.19999999999993 70.1 C 414.8999999999999 70.5 414.5999999999999 70.8 414.3999999999999 71.1 L 414.2999999999999 68.5 L 411.1999999999999 68.5 C 411.1999999999999 69.1 411.1999999999999 69.7 411.1999999999999 70.2 L 411.1999999999999 85.5 L 414.39999999999986 85.5 L 414.39999999999986 77.6 C 414.39999999999986 76.8 414.4999999999999 76 414.59999999999985 75.19999999999999 C 414.79999999999984 74.39999999999999 414.99999999999983 73.69999999999999 415.39999999999986 73.1 C 415.79999999999984 72.5 416.29999999999984 72 416.89999999999986 71.6 C 417.4999999999999 71.19999999999999 418.29999999999984 71 419.1999999999999 71 C 420.39999999999986 71 421.2999999999999 71.4 421.9999999999999 72.1 C 422.6999999999999 72.8 422.9999999999999 74 422.9999999999999 75.6 L 422.9999999999999 85.6 L 426.1999999999999 85.6 L 426.1999999999999 75.3 C 426.1999999999999 73.1 425.6999999999999 71.3 424.59999999999985 70 C 423.7 68.7 422.1 68.1 419.9 68.1 z M 442.2 78.7 C 441.9 78.10000000000001 441.5 77.60000000000001 441 77.2 C 440.5 76.8 439.9 76.5 439.2 76.2 C 438.5 75.9 437.8 75.7 437 75.5 C 435.7 75.2 434.6 74.9 433.8 74.5 C 433 74.1 432.6 73.6 432.6 72.9 C 432.6 72.10000000000001 432.90000000000003 71.60000000000001 433.5 71.2 C 434.1 70.9 434.9 70.7 436 70.7 C 437 70.7 437.9 70.9 438.6 71.2 C 439.3 71.5 440 71.9 440.5 72.4 L 442.2 70.10000000000001 C 441.4 69.4 440.59999999999997 68.9 439.5 68.50000000000001 C 438.5 68.10000000000001 437.3 67.90000000000002 435.9 67.90000000000002 C 435.09999999999997 67.90000000000002 434.29999999999995 68.00000000000001 433.5 68.20000000000002 C 432.7 68.40000000000002 432 68.70000000000002 431.4 69.20000000000002 C 430.79999999999995 69.60000000000002 430.29999999999995 70.20000000000002 429.9 70.80000000000001 C 429.5 71.4 429.4 72.10000000000001 429.4 73.00000000000001 C 429.4 73.80000000000001 429.59999999999997 74.50000000000001 429.9 75.10000000000001 C 430.2 75.7 430.59999999999997 76.2 431.09999999999997 76.60000000000001 C 431.59999999999997 77.00000000000001 432.2 77.30000000000001 432.79999999999995 77.60000000000001 C 433.4 77.80000000000001 434.09999999999997 78.00000000000001 434.69999999999993 78.2 C 435.5999999999999 78.4 436.3999999999999 78.60000000000001 436.99999999999994 78.8 C 437.59999999999997 79 438.09999999999997 79.2 438.49999999999994 79.39999999999999 C 438.8999999999999 79.6 439.09999999999997 79.89999999999999 439.29999999999995 80.1 C 439.49999999999994 80.39999999999999 439.49999999999994 80.69999999999999 439.49999999999994 81.1 C 439.49999999999994 81.89999999999999 439.09999999999997 82.39999999999999 438.3999999999999 82.8 C 437.69999999999993 83.2 436.7999999999999 83.3 435.69999999999993 83.3 C 434.5999999999999 83.3 433.5999999999999 83.1 432.79999999999995 82.7 C 431.99999999999994 82.3 431.29999999999995 81.8 430.69999999999993 81.2 L 428.69999999999993 83.4 C 430.29999999999995 85.10000000000001 432.5999999999999 86 435.69999999999993 86 C 436.5999999999999 86 437.49999999999994 85.9 438.29999999999995 85.7 C 439.09999999999997 85.5 439.9 85.10000000000001 440.49999999999994 84.7 C 441.09999999999997 84.3 441.59999999999997 83.7 441.99999999999994 83.10000000000001 C 442.3999999999999 82.50000000000001 442.59999999999997 81.7 442.59999999999997 80.80000000000001 C 442.6 80 442.5 79.3 442.2 78.7 z M 209.3 68.2 C 208.5 68.2 207.9 68.3 207.3 68.5 C 206.70000000000002 68.7 206.20000000000002 68.9 205.70000000000002 69.2 C 205.3 69.5 204.9 69.8 204.60000000000002 70.2 C 204.3 70.60000000000001 204.00000000000003 70.9 203.8 71.2 L 203.70000000000002 68.60000000000001 L 200.60000000000002 68.60000000000001 C 200.60000000000002 69.2 200.60000000000002 69.80000000000001 200.60000000000002 70.30000000000001 L 200.60000000000002 72.30000000000001 L 200.60000000000002 85.60000000000001 L 203.8 85.60000000000001 L 203.8 77.7 C 203.8 76.9 203.9 76.10000000000001 204.10000000000002 75.3 C 204.3 74.5 204.50000000000003 73.8 204.90000000000003 73.2 C 205.30000000000004 72.60000000000001 205.80000000000004 72.10000000000001 206.40000000000003 71.7 C 207.00000000000003 71.3 207.80000000000004 71.10000000000001 208.70000000000005 71.10000000000001 C 209.90000000000003 71.10000000000001 210.80000000000004 71.50000000000001 211.50000000000006 72.2 C 212.20000000000005 72.9 212.50000000000006 74.10000000000001 212.50000000000006 75.7 L 212.50000000000006 85.7 L 215.70000000000005 85.7 L 215.70000000000005 75.4 C 215.70000000000005 73.2 215.20000000000005 71.4 214.10000000000005 70.10000000000001 C 213.1 68.8 211.5 68.2 209.3 68.2 z M 229.8 83.5 L 229.9 85.6 L 232.9 85.6 C 232.9 85.19999999999999 232.9 84.69999999999999 232.9 84.1 L 232.9 74.19999999999999 C 232.9 72.19999999999999 232.3 70.69999999999999 231.1 69.69999999999999 C 229.9 68.6 228.2 68.1 226.1 68.1 C 225.2 68.1 224.4 68.19999999999999 223.7 68.3 C 223 68.39999999999999 222.39999999999998 68.6 221.79999999999998 68.8 C 221.29999999999998 69 220.79999999999998 69.2 220.39999999999998 69.5 C 219.99999999999997 69.7 219.59999999999997 70 219.39999999999998 70.2 L 220.89999999999998 72.4 C 221.39999999999998 72 221.99999999999997 71.7 222.79999999999998 71.30000000000001 C 223.49999999999997 70.9 224.49999999999997 70.80000000000001 225.79999999999998 70.80000000000001 C 227.1 70.80000000000001 228.1 71.10000000000001 228.79999999999998 71.60000000000001 C 229.49999999999997 72.10000000000001 229.89999999999998 73.10000000000001 229.89999999999998 74.30000000000001 L 229.89999999999998 75 C 229.79999999999998 75 229.59999999999997 75 229.29999999999998 74.9 C 228.99999999999997 74.9 228.7 74.9 228.29999999999998 74.80000000000001 C 227.89999999999998 74.80000000000001 227.49999999999997 74.80000000000001 227.1 74.70000000000002 C 226.7 74.70000000000002 226.29999999999998 74.70000000000002 225.9 74.70000000000002 C 223.5 74.70000000000002 221.70000000000002 75.20000000000002 220.5 76.30000000000001 C 219.3 77.4 218.6 78.9 218.6 80.70000000000002 C 218.6 81.70000000000002 218.79999999999998 82.50000000000001 219.1 83.20000000000002 C 219.4 83.90000000000002 219.9 84.40000000000002 220.5 84.80000000000001 C 221.1 85.20000000000002 221.7 85.50000000000001 222.4 85.70000000000002 C 223.1 85.90000000000002 223.8 86.00000000000001 224.4 86.00000000000001 C 225.5 86.00000000000001 226.5 85.80000000000001 227.5 85.40000000000002 C 228.4 85 229.2 84.4 229.8 83.5 z M 226.8 83.1 C 226.20000000000002 83.3 225.70000000000002 83.39999999999999 225 83.39999999999999 C 223.9 83.39999999999999 223.1 83.19999999999999 222.4 82.69999999999999 C 221.8 82.19999999999999 221.5 81.49999999999999 221.5 80.6 C 221.5 80.19999999999999 221.6 79.8 221.7 79.39999999999999 C 221.79999999999998 78.99999999999999 222 78.6 222.39999999999998 78.3 C 222.7 78 223.2 77.7 223.7 77.5 C 224.29999999999998 77.3 225 77.2 225.89999999999998 77.2 C 226.29999999999998 77.2 226.7 77.2 227.09999999999997 77.2 C 227.49999999999997 77.2 227.89999999999998 77.3 228.19999999999996 77.3 C 228.49999999999994 77.3 228.89999999999995 77.39999999999999 229.09999999999997 77.39999999999999 C 229.39999999999998 77.39999999999999 229.59999999999997 77.49999999999999 229.69999999999996 77.49999999999999 L 229.69999999999996 79.39999999999999 C 229.69999999999996 79.89999999999999 229.59999999999997 80.39999999999999 229.29999999999995 80.89999999999999 C 228.99999999999994 81.39999999999999 228.69999999999996 81.8 228.29999999999995 82.19999999999999 C 227.9 82.6 227.4 82.9 226.8 83.1 z M 247.1 72.1 C 247.79999999999998 72.8 248.1 74 248.1 75.6 L 248.1 85.6 L 251.29999999999998 85.6 L 251.29999999999998 75.4 C 251.29999999999998 73.2 250.79999999999998 71.4 249.7 70.10000000000001 C 248.6 68.80000000000001 247.1 68.2 244.89999999999998 68.2 C 244.09999999999997 68.2 243.49999999999997 68.3 242.89999999999998 68.5 C 242.29999999999998 68.7 241.79999999999998 68.9 241.29999999999998 69.2 C 240.79999999999998 69.5 240.49999999999997 69.8 240.2 70.2 C 239.89999999999998 70.60000000000001 239.6 70.9 239.39999999999998 71.2 L 239.29999999999998 68.60000000000001 L 236.2 68.60000000000001 C 236.2 69.2 236.2 69.80000000000001 236.2 70.30000000000001 L 236.2 85.60000000000001 L 239.39999999999998 85.60000000000001 L 239.39999999999998 77.7 C 239.39999999999998 76.9 239.49999999999997 76.10000000000001 239.7 75.3 C 239.89999999999998 74.5 240.1 73.8 240.5 73.2 C 240.9 72.60000000000001 241.4 72.10000000000001 242 71.7 C 242.6 71.3 243.4 71.10000000000001 244.3 71.10000000000001 C 245.5 71 246.4 71.4 247.1 72.1 z M 266.2 85.3 C 267.3 84.8 268.2 84.1 268.9 83.2 L 266.9 81.10000000000001 C 266.4 81.7 265.79999999999995 82.2 265 82.60000000000001 C 264.2 83.00000000000001 263.4 83.2 262.4 83.2 C 261.5 83.2 260.79999999999995 83 260.09999999999997 82.7 C 259.4 82.4 258.9 81.9 258.4 81.3 C 257.9 80.7 257.59999999999997 80.1 257.29999999999995 79.3 C 257.09999999999997 78.6 256.9 77.8 256.9 77 C 256.9 76.2 257 75.4 257.29999999999995 74.7 C 257.49999999999994 74 257.9 73.3 258.4 72.7 C 258.9 72.10000000000001 259.4 71.7 260.09999999999997 71.3 C 260.79999999999995 71 261.49999999999994 70.8 262.4 70.8 C 263.4 70.8 264.2 71 264.9 71.39999999999999 C 265.59999999999997 71.8 266.2 72.3 266.7 72.89999999999999 L 268.8 70.8 C 268 69.89999999999999 267.1 69.2 266.1 68.7 C 265 68.2 263.8 67.9 262.40000000000003 67.9 C 261.1 67.9 259.90000000000003 68.10000000000001 258.90000000000003 68.60000000000001 C 257.8 69.10000000000001 256.90000000000003 69.7 256.20000000000005 70.50000000000001 C 255.40000000000003 71.30000000000001 254.80000000000004 72.30000000000001 254.40000000000003 73.40000000000002 C 254.00000000000003 74.50000000000001 253.80000000000004 75.70000000000002 253.80000000000004 76.90000000000002 C 253.80000000000004 78.20000000000002 254.00000000000003 79.40000000000002 254.40000000000003 80.50000000000001 C 254.80000000000004 81.60000000000001 255.40000000000003 82.60000000000001 256.1 83.40000000000002 C 256.8 84.20000000000002 257.8 84.80000000000003 258.8 85.30000000000003 C 259.90000000000003 85.80000000000003 261.1 86.00000000000003 262.40000000000003 86.00000000000003 C 263.8 86.1 265.1 85.8 266.2 85.3 z M 274.9 85.6 L 274.9 68.6 L 271.7 68.6 L 271.7 85.6 L 274.9 85.6 z M 275.1 61.8 L 271.5 61.8 L 271.5 65.5 L 275.1 65.5 L 275.1 61.8 z M 292.2 74.2 C 292.2 72.2 291.59999999999997 70.7 290.4 69.7 C 289.2 68.60000000000001 287.5 68.10000000000001 285.4 68.10000000000001 C 284.5 68.10000000000001 283.7 68.2 283 68.30000000000001 C 282.3 68.4 281.7 68.60000000000001 281.1 68.80000000000001 C 280.6 69.00000000000001 280.1 69.20000000000002 279.70000000000005 69.50000000000001 C 279.30000000000007 69.70000000000002 279.00000000000006 70.00000000000001 278.70000000000005 70.20000000000002 L 280.20000000000005 72.40000000000002 C 280.70000000000005 72.00000000000001 281.30000000000007 71.70000000000002 282.00000000000006 71.30000000000003 C 282.70000000000005 70.90000000000002 283.70000000000005 70.80000000000003 285.00000000000006 70.80000000000003 C 286.30000000000007 70.80000000000003 287.30000000000007 71.10000000000002 288.00000000000006 71.60000000000002 C 288.70000000000005 72.10000000000002 289.1000000000001 73.10000000000002 289.1000000000001 74.30000000000003 L 289.1000000000001 75 C 289.00000000000006 75 288.80000000000007 75 288.50000000000006 74.9 C 288.20000000000005 74.9 287.90000000000003 74.9 287.50000000000006 74.80000000000001 C 287.1000000000001 74.80000000000001 286.70000000000005 74.80000000000001 286.30000000000007 74.70000000000002 C 285.9000000000001 74.70000000000002 285.50000000000006 74.70000000000002 285.1000000000001 74.70000000000002 C 282.80000000000007 74.70000000000002 281.00000000000006 75.20000000000002 279.7000000000001 76.30000000000001 C 278.5000000000001 77.4 277.8000000000001 78.9 277.8000000000001 80.70000000000002 C 277.8000000000001 81.70000000000002 278.0000000000001 82.50000000000001 278.3000000000001 83.20000000000002 C 278.60000000000014 83.90000000000002 279.10000000000014 84.40000000000002 279.7000000000001 84.80000000000001 C 280.3000000000001 85.20000000000002 280.9000000000001 85.50000000000001 281.6000000000001 85.70000000000002 C 282.30000000000007 85.90000000000002 283.00000000000006 86.00000000000001 283.7000000000001 86.00000000000001 C 284.8000000000001 86.00000000000001 285.8000000000001 85.80000000000001 286.8000000000001 85.40000000000002 C 287.8000000000001 85.00000000000001 288.60000000000014 84.40000000000002 289.2000000000001 83.50000000000001 L 289.3000000000001 85.60000000000001 L 292.3000000000001 85.60000000000001 C 292.3000000000001 85.2 292.3000000000001 84.7 292.3000000000001 84.10000000000001 L 292.2 74.2 L 292.2 74.2 z M 289.2 79.5 C 289.2 80 289.09999999999997 80.5 288.8 81 C 288.5 81.5 288.2 81.9 287.8 82.3 C 287.40000000000003 82.7 286.90000000000003 83 286.3 83.2 C 285.7 83.4 285.2 83.5 284.5 83.5 C 283.4 83.5 282.6 83.3 281.9 82.8 C 281.29999999999995 82.3 281 81.6 281 80.7 C 281 80.3 281.1 79.9 281.2 79.5 C 281.3 79.1 281.5 78.7 281.9 78.4 C 282.2 78.10000000000001 282.7 77.80000000000001 283.2 77.60000000000001 C 283.8 77.4 284.5 77.30000000000001 285.4 77.30000000000001 C 285.79999999999995 77.30000000000001 286.2 77.30000000000001 286.59999999999997 77.30000000000001 C 286.99999999999994 77.30000000000001 287.4 77.4 287.7 77.4 C 288.09999999999997 77.4 288.4 77.5 288.59999999999997 77.5 C 288.9 77.5 289.09999999999997 77.6 289.2 77.6 L 289.2 79.5 z M 296.3 85.6 L 299.5 85.6 L 299.5 61.2 L 296.3 61.2 L 296.3 85.6 z M 193.2 85.6 L 196.39999999999998 85.6 L 196.39999999999998 68.6 L 193.2 68.6 L 193.2 85.6 z M 193 65.5 L 196.6 65.5 L 196.6 61.8 L 193 61.8 L 193 65.5 z M 181.4 85.6 L 184.6 85.6 L 184.6 71.3 L 189.29999999999998 71.3 L 189.29999999999998 68.6 L 184.6 68.6 L 184.6 67.5 C 184.6 66 184.9 65 185.4 64.4 C 186 63.800000000000004 186.70000000000002 63.50000000000001 187.6 63.50000000000001 C 188.1 63.50000000000001 188.7 63.60000000000001 189.2 63.800000000000004 L 190.79999999999998 61.6 C 190.39999999999998 61.4 190.1 61.2 189.7 61.1 C 188.89999999999998 60.800000000000004 188 60.7 187.1 60.7 C 186.29999999999998 60.7 185.6 60.800000000000004 184.9 61.1 C 184.20000000000002 61.4 183.6 61.800000000000004 183.1 62.300000000000004 C 182.6 62.800000000000004 182.1 63.50000000000001 181.79999999999998 64.4 C 181.49999999999997 65.2 181.29999999999998 66.2 181.29999999999998 67.4 L 181.29999999999998 68.80000000000001 L 178.29999999999998 68.80000000000001 L 178.29999999999998 71.50000000000001 L 181.29999999999998 71.50000000000001 L 181.4 85.6 L 181.4 85.6 z M 194.6 99.2 C 194 98.4 193.2 97.7 192.29999999999998 97.2 C 191.39999999999998 96.7 190.29999999999998 96.5 188.99999999999997 96.5 C 188.19999999999996 96.5 187.49999999999997 96.6 186.89999999999998 96.8 C 186.29999999999998 97 185.7 97.3 185.29999999999998 97.6 C 184.79999999999998 97.89999999999999 184.49999999999997 98.19999999999999 184.1 98.5 C 183.79999999999998 98.8 183.6 99.1 183.4 99.3 L 183.3 96.89999999999999 L 180.20000000000002 96.89999999999999 C 180.20000000000002 97.49999999999999 180.20000000000002 98.1 180.20000000000002 98.6 L 180.20000000000002 121.19999999999999 L 183.4 121.19999999999999 L 183.4 113.29999999999998 C 184 113.59999999999998 184.6 113.79999999999998 185.3 114.09999999999998 C 186 114.29999999999998 186.9 114.49999999999999 188 114.49999999999999 C 189 114.49999999999999 190 114.29999999999998 191 113.99999999999999 C 192 113.59999999999998 192.9 113.09999999999998 193.7 112.39999999999999 C 194.49999999999997 111.7 195.2 110.69999999999999 195.7 109.6 C 196.2 108.5 196.5 107.1 196.5 105.6 C 196.5 104.39999999999999 196.4 103.3 196.1 102.19999999999999 C 195.6 100.9 195.2 100 194.6 99.2 z M 192.7 107.8 C 192.39999999999998 108.5 192.1 109.2 191.6 109.7 C 191.1 110.2 190.5 110.7 189.9 111 C 189.20000000000002 111.3 188.5 111.5 187.70000000000002 111.5 C 186.60000000000002 111.5 185.70000000000002 111.4 185.00000000000003 111.1 C 184.30000000000004 110.8 183.70000000000002 110.5 183.40000000000003 110.19999999999999 L 183.40000000000003 105.79999999999998 C 183.40000000000003 105.29999999999998 183.40000000000003 104.79999999999998 183.40000000000003 104.39999999999998 C 183.40000000000003 103.89999999999998 183.50000000000003 103.49999999999997 183.60000000000002 103.09999999999998 C 183.90000000000003 101.89999999999998 184.50000000000003 100.89999999999998 185.3 100.29999999999998 C 186.10000000000002 99.69999999999999 187.10000000000002 99.29999999999998 188.20000000000002 99.29999999999998 C 189.10000000000002 99.29999999999998 189.9 99.49999999999999 190.50000000000003 99.79999999999998 C 191.10000000000002 100.09999999999998 191.60000000000002 100.59999999999998 192.00000000000003 101.09999999999998 C 192.40000000000003 101.69999999999997 192.70000000000002 102.29999999999998 192.90000000000003 102.99999999999999 C 193.10000000000002 103.69999999999999 193.20000000000005 104.49999999999999 193.20000000000005 105.29999999999998 C 193.1 106.3 193 107.1 192.7 107.8 z M 212.7 102.4 C 212.7 100.4 212.1 98.9 210.89999999999998 97.9 C 209.7 96.80000000000001 207.99999999999997 96.30000000000001 205.89999999999998 96.30000000000001 C 204.99999999999997 96.30000000000001 204.2 96.4 203.49999999999997 96.50000000000001 C 202.79999999999998 96.60000000000001 202.19999999999996 96.80000000000001 201.59999999999997 97.00000000000001 C 201.09999999999997 97.20000000000002 200.59999999999997 97.40000000000002 200.19999999999996 97.70000000000002 C 199.79999999999995 97.90000000000002 199.49999999999997 98.20000000000002 199.19999999999996 98.40000000000002 L 200.69999999999996 100.60000000000002 C 201.19999999999996 100.20000000000002 201.79999999999995 99.90000000000002 202.59999999999997 99.50000000000003 C 203.29999999999995 99.10000000000002 204.29999999999995 99.00000000000003 205.59999999999997 99.00000000000003 C 206.89999999999998 99.00000000000003 207.89999999999998 99.30000000000003 208.59999999999997 99.80000000000003 C 209.29999999999995 100.30000000000003 209.69999999999996 101.30000000000003 209.69999999999996 102.50000000000003 L 209.69999999999996 103.10000000000002 C 209.59999999999997 103.10000000000002 209.39999999999995 103.10000000000002 209.09999999999997 103.00000000000003 C 208.79999999999995 103.00000000000003 208.49999999999997 103.00000000000003 208.09999999999997 102.90000000000003 C 207.69999999999996 102.90000000000003 207.29999999999995 102.90000000000003 206.89999999999998 102.80000000000004 C 206.49999999999997 102.80000000000004 206.09999999999997 102.80000000000004 205.7 102.80000000000004 C 203.39999999999998 102.80000000000004 201.6 103.40000000000003 200.29999999999998 104.40000000000003 C 199.1 105.50000000000003 198.39999999999998 107.00000000000003 198.39999999999998 108.80000000000004 C 198.39999999999998 109.80000000000004 198.59999999999997 110.60000000000004 198.89999999999998 111.30000000000004 C 199.2 112.00000000000004 199.7 112.50000000000004 200.29999999999998 112.90000000000003 C 200.89999999999998 113.30000000000004 201.49999999999997 113.60000000000004 202.1 113.80000000000004 C 202.79999999999998 114.00000000000004 203.5 114.10000000000004 204.1 114.10000000000004 C 205.2 114.10000000000004 206.2 113.90000000000003 207.2 113.50000000000004 C 208.2 113.10000000000004 209 112.50000000000004 209.6 111.60000000000004 L 209.7 113.70000000000003 L 212.7 113.70000000000003 C 212.7 113.30000000000003 212.7 112.80000000000003 212.7 112.20000000000003 L 212.7 102.4 L 212.7 102.4 z M 209.6 107.7 C 209.6 108.2 209.5 108.7 209.2 109.2 C 208.89999999999998 109.7 208.6 110.10000000000001 208.2 110.5 C 207.79999999999998 110.9 207.29999999999998 111.2 206.7 111.4 C 206.1 111.60000000000001 205.6 111.7 204.89999999999998 111.7 C 203.79999999999998 111.7 202.99999999999997 111.5 202.29999999999998 111 C 201.7 110.5 201.39999999999998 109.8 201.39999999999998 108.9 C 201.39999999999998 108.5 201.49999999999997 108.2 201.59999999999997 107.7 C 201.69999999999996 107.3 201.89999999999998 106.9 202.29999999999995 106.60000000000001 C 202.59999999999997 106.30000000000001 203.09999999999997 106.00000000000001 203.59999999999997 105.80000000000001 C 204.19999999999996 105.60000000000001 204.89999999999998 105.50000000000001 205.79999999999995 105.50000000000001 C 206.19999999999996 105.50000000000001 206.59999999999997 105.50000000000001 206.99999999999994 105.50000000000001 C 207.39999999999995 105.50000000000001 207.79999999999995 105.50000000000001 208.09999999999994 105.60000000000001 C 208.49999999999994 105.60000000000001 208.79999999999993 105.7 208.99999999999994 105.7 C 209.29999999999995 105.7 209.49999999999994 105.8 209.59999999999994 105.8 L 209.6 107.7 L 209.6 107.7 z M 224.5 96.6 C 223.7 96.6 223.1 96.69999999999999 222.5 96.89999999999999 C 221.9 97.1 221.4 97.39999999999999 221 97.69999999999999 C 220.6 97.99999999999999 220.2 98.29999999999998 219.9 98.69999999999999 C 219.6 99.1 219.3 99.39999999999999 219.20000000000002 99.69999999999999 L 219.10000000000002 96.99999999999999 L 216.00000000000003 96.99999999999999 C 216.00000000000003 97.59999999999998 216.00000000000003 98.09999999999998 216.00000000000003 98.59999999999998 L 216.00000000000003 113.99999999999999 L 219.20000000000002 113.99999999999999 L 219.20000000000002 104.99999999999999 C 219.20000000000002 104.29999999999998 219.3 103.59999999999998 219.60000000000002 102.99999999999999 C 219.8 102.39999999999999 220.20000000000002 101.79999999999998 220.60000000000002 101.29999999999998 C 221.00000000000003 100.79999999999998 221.50000000000003 100.39999999999998 222.10000000000002 100.19999999999999 C 222.70000000000002 99.89999999999999 223.3 99.79999999999998 224.00000000000003 99.79999999999998 C 224.70000000000002 99.79999999999998 225.20000000000002 99.89999999999998 225.60000000000002 100.09999999999998 L 226.3 96.99999999999999 C 226 96.89999999999999 225.8 96.79999999999998 225.5 96.79999999999998 C 225.2 96.6 224.9 96.6 224.5 96.6 z M 237.1 111.3 C 236.7 111.5 236.2 111.6 235.6 111.6 C 234.79999999999998 111.6 234.29999999999998 111.3 233.79999999999998 110.8 C 233.39999999999998 110.3 233.2 109.3 233.2 108 L 233.2 99.6 L 238 99.6 L 238 96.89999999999999 L 233.2 96.89999999999999 L 233.2 91.3 L 230 91.3 L 230 96.89999999999999 L 227.9 96.89999999999999 L 227.9 99.6 L 230 99.6 L 230 108.3 C 230 110.39999999999999 230.4 111.89999999999999 231.2 112.89999999999999 C 232 113.89999999999999 233.29999999999998 114.39999999999999 235.1 114.39999999999999 C 236.1 114.39999999999999 237 114.19999999999999 237.7 113.89999999999999 C 238.39999999999998 113.6 239.1 113.1 239.79999999999998 112.39999999999999 L 238.29999999999998 110.39999999999999 C 237.9 110.8 237.5 111.1 237.1 111.3 z M 250.8 96.4 C 250 96.4 249.4 96.5 248.8 96.7 C 248.20000000000002 96.9 247.70000000000002 97.10000000000001 247.20000000000002 97.4 C 246.8 97.7 246.4 98 246.10000000000002 98.4 C 245.8 98.80000000000001 245.50000000000003 99.10000000000001 245.3 99.4 L 245.20000000000002 96.80000000000001 L 242.10000000000002 96.80000000000001 C 242.10000000000002 97.4 242.10000000000002 98.00000000000001 242.10000000000002 98.50000000000001 L 242.10000000000002 113.80000000000001 L 245.3 113.80000000000001 L 245.3 105.9 C 245.3 105.10000000000001 245.4 104.30000000000001 245.5 103.5 C 245.7 102.7 245.9 102 246.3 101.4 C 246.70000000000002 100.80000000000001 247.20000000000002 100.30000000000001 247.8 99.9 C 248.4 99.5 249.20000000000002 99.30000000000001 250.10000000000002 99.30000000000001 C 251.3 99.30000000000001 252.20000000000002 99.70000000000002 252.90000000000003 100.4 C 253.60000000000002 101.10000000000001 253.90000000000003 102.30000000000001 253.90000000000003 103.9 L 253.90000000000003 113.9 L 257.1 113.9 L 257.1 103.7 C 257.1 101.5 256.6 99.7 255.50000000000003 98.4 C 254.5 97.1 252.9 96.4 250.8 96.4 z M 275.6 102.6 C 275.3 101.39999999999999 274.8 100.3 274.20000000000005 99.39999999999999 C 273.50000000000006 98.49999999999999 272.70000000000005 97.69999999999999 271.70000000000005 97.19999999999999 C 270.70000000000005 96.6 269.50000000000006 96.39999999999999 268.00000000000006 96.39999999999999 C 266.80000000000007 96.39999999999999 265.70000000000005 96.6 264.70000000000005 97.1 C 263.70000000000005 97.6 262.80000000000007 98.19999999999999 262.1 99 C 261.40000000000003 99.8 260.8 100.7 260.40000000000003 101.8 C 260.00000000000006 102.89999999999999 259.8 104.1 259.8 105.3 C 259.8 106.7 260 107.89999999999999 260.40000000000003 109 C 260.8 110.1 261.40000000000003 111.1 262.20000000000005 111.9 C 263.00000000000006 112.7 263.90000000000003 113.30000000000001 264.90000000000003 113.80000000000001 C 266.00000000000006 114.20000000000002 267.1 114.50000000000001 268.40000000000003 114.50000000000001 C 269.40000000000003 114.50000000000001 270.40000000000003 114.40000000000002 271.20000000000005 114.10000000000001 C 272.00000000000006 113.9 272.70000000000005 113.60000000000001 273.30000000000007 113.30000000000001 C 273.9000000000001 113.00000000000001 274.4000000000001 112.70000000000002 274.80000000000007 112.30000000000001 C 275.20000000000005 112.00000000000001 275.50000000000006 111.70000000000002 275.70000000000005 111.50000000000001 L 273.90000000000003 109.50000000000001 C 273.50000000000006 110.00000000000001 272.8 110.40000000000002 271.90000000000003 110.90000000000002 C 271.00000000000006 111.40000000000002 269.8 111.60000000000002 268.40000000000003 111.60000000000002 C 267.70000000000005 111.60000000000002 267.00000000000006 111.50000000000003 266.40000000000003 111.20000000000002 C 265.8 110.90000000000002 265.20000000000005 110.60000000000002 264.70000000000005 110.10000000000002 C 264.20000000000005 109.60000000000002 263.80000000000007 109.10000000000002 263.50000000000006 108.50000000000003 C 263.20000000000005 107.90000000000003 263.00000000000006 107.20000000000003 263.00000000000006 106.40000000000003 L 276 106.40000000000003 C 276 105 275.9 103.8 275.6 102.6 z M 263 103.9 C 263 103.30000000000001 263.2 102.7 263.4 102.10000000000001 C 263.59999999999997 101.50000000000001 264 101.00000000000001 264.4 100.60000000000001 C 264.79999999999995 100.2 265.29999999999995 99.80000000000001 265.9 99.50000000000001 C 266.5 99.20000000000002 267.2 99.10000000000001 267.9 99.10000000000001 C 269.4 99.10000000000001 270.5 99.60000000000001 271.29999999999995 100.50000000000001 C 272.09999999999997 101.40000000000002 272.59999999999997 102.60000000000001 272.69999999999993 103.90000000000002 L 263 103.9 L 263 103.9 z M 287.2 96.6 C 286.4 96.6 285.8 96.69999999999999 285.2 96.89999999999999 C 284.59999999999997 97.1 284.09999999999997 97.39999999999999 283.7 97.69999999999999 C 283.3 97.99999999999999 282.9 98.29999999999998 282.59999999999997 98.69999999999999 C 282.29999999999995 99.1 281.99999999999994 99.39999999999999 281.9 99.69999999999999 L 281.79999999999995 96.99999999999999 L 278.69999999999993 96.99999999999999 C 278.69999999999993 97.59999999999998 278.69999999999993 98.09999999999998 278.69999999999993 98.59999999999998 L 278.69999999999993 113.99999999999999 L 281.8999999999999 113.99999999999999 L 281.8999999999999 104.99999999999999 C 281.8999999999999 104.29999999999998 281.99999999999994 103.59999999999998 282.2999999999999 102.99999999999999 C 282.4999999999999 102.39999999999999 282.8999999999999 101.79999999999998 283.2999999999999 101.29999999999998 C 283.6999999999999 100.79999999999998 284.1999999999999 100.39999999999998 284.7999999999999 100.19999999999999 C 285.3999999999999 99.89999999999999 285.9999999999999 99.79999999999998 286.6999999999999 99.79999999999998 C 287.39999999999986 99.79999999999998 287.89999999999986 99.89999999999998 288.2999999999999 100.09999999999998 L 288.9999999999999 96.99999999999999 C 288.6999999999999 96.89999999999999 288.4999999999999 96.79999999999998 288.1999999999999 96.79999999999998 C 287.9 96.6 287.6 96.6 287.2 96.6 z" stroke-linecap="round" />
</g>
</svg>